<svg id="svg" version="1.1" xmlns="http://www.w3.org/2000/svg" xmlns:xlink="http://www.w3.org/1999/xlink" width="400" height="400" viewBox="0, 0, 400,400"><g id="svgg"><path id="path0" d="M199.559 67.702 C 178.240 68.864,155.110 75.598,138.167 85.576 C 133.927 88.073,133.907 88.007,138.833 87.830 C 141.217 87.745,147.742 87.597,153.333 87.502 C 163.426 87.331,168.972 86.963,180.500 85.698 C 193.248 84.301,195.946 84.166,210.667 84.196 C 221.913 84.218,226.550 84.359,231.333 84.822 C 243.142 85.967,276.724 85.934,275.152 84.779 C 264.366 76.862,235.940 68.849,214.500 67.682 C 207.576 67.305,206.822 67.306,199.559 67.702 M198.667 84.559 C 185.656 85.509,169.987 89.326,158.906 94.245 C 156.778 95.190,156.703 95.484,158.313 96.575 C 160.166 97.831,161.508 97.891,164.331 96.842 C 171.285 94.258,180.081 91.901,186.583 90.880 L 189.333 90.448 189.333 91.890 C 189.333 92.951,189.466 93.333,189.833 93.333 C 190.108 93.333,190.333 93.558,190.333 93.833 C 190.333 94.280,190.955 94.471,192.250 94.423 C 192.479 94.414,192.667 94.525,192.667 94.669 C 192.667 94.813,193.904 95.033,195.417 95.158 C 196.929 95.283,198.542 95.440,199.000 95.507 C 203.984 96.229,207.895 95.824,212.235 94.135 C 214.759 93.154,215.000 92.818,215.000 90.292 C 215.000 89.426,215.109 89.333,216.121 89.333 L 217.241 89.333 217.473 91.886 C 217.710 94.509,218.232 95.940,219.429 97.249 C 220.442 98.356,220.375 98.364,212.493 98.067 C 191.255 97.268,168.140 102.702,153.500 111.936 L 151.833 112.987 207.594 112.994 L 263.355 113.000 265.023 113.845 C 270.749 116.747,282.149 125.753,288.500 132.394 C 289.783 133.736,290.449 134.496,289.979 134.083 L 289.124 133.333 207.635 133.333 L 126.146 133.333 124.281 135.250 C 109.414 150.534,96.000 181.250,96.000 200.011 L 96.000 201.667 207.500 201.667 L 319.000 201.667 318.998 200.083 C 318.979 183.256,308.304 156.664,294.778 139.750 C 293.422 138.054,292.405 136.667,292.519 136.667 C 292.632 136.667,293.664 137.192,294.811 137.833 C 298.658 139.985,300.000 139.140,300.000 134.568 C 300.000 132.279,299.972 132.206,298.432 130.369 C 288.207 118.178,273.003 106.814,257.077 99.459 L 253.167 97.654 256.004 97.715 C 261.760 97.838,261.697 96.707,255.808 94.199 C 238.307 86.743,217.299 83.199,198.667 84.559 M148.000 99.538 C 144.057 101.616,133.597 108.303,133.144 109.037 C 132.832 109.541,133.252 109.814,133.742 109.425 C 133.976 109.240,135.592 108.458,137.333 107.688 C 144.852 104.364,146.467 103.394,150.109 100.019 C 153.486 96.889,153.168 96.816,148.000 99.538 M297.053 110.916 C 290.212 111.131,290.424 114.058,297.848 121.908 C 315.804 140.892,327.726 164.240,331.680 188.167 C 333.012 196.231,334.918 197.595,344.249 197.158 L 349.357 196.918 349.156 194.876 C 346.231 165.181,331.819 133.649,311.924 113.417 L 309.220 110.667 304.860 110.737 C 302.462 110.776,298.949 110.856,297.053 110.916 M105.776 114.229 L 102.051 114.355 99.247 117.594 C 79.668 140.211,65.387 175.106,65.337 200.453 L 65.333 202.073 71.417 201.939 C 80.532 201.738,81.980 200.844,82.678 194.989 C 85.789 168.892,97.323 144.003,115.337 124.514 C 118.290 121.319,119.999 118.615,120.497 116.347 C 120.958 114.249,117.957 113.817,105.776 114.229 M324.667 210.111 C 324.667 226.183,324.729 239.333,324.805 239.333 C 325.574 239.333,327.851 224.808,328.311 216.969 C 328.941 206.219,326.671 182.968,324.801 181.028 C 324.727 180.951,324.667 194.039,324.667 210.111 M339.667 200.000 C 339.667 200.183,339.403 200.333,339.082 200.333 C 338.459 200.333,338.135 201.074,336.970 205.167 C 336.357 207.320,335.987 214.830,336.456 215.599 C 336.535 215.728,336.696 216.883,336.814 218.167 C 337.305 223.503,337.909 226.000,338.709 226.000 C 339.108 226.000,339.248 226.169,339.121 226.500 C 338.955 226.931,339.620 227.000,343.918 227.000 L 348.908 227.000 349.147 224.417 C 349.834 217.007,350.024 203.083,349.475 200.417 C 349.306 199.598,339.667 199.188,339.667 200.000 M95.667 210.109 C 95.667 215.840,96.056 222.472,96.516 224.583 L 96.679 225.333 207.480 225.333 L 318.280 225.333 318.470 224.417 C 318.947 222.114,319.333 215.626,319.333 209.917 L 319.333 203.667 207.500 203.667 L 95.667 203.667 95.667 210.109 M66.796 204.575 L 65.425 204.701 65.212 206.732 C 64.780 210.871,65.272 220.315,66.351 228.583 L 66.754 231.667 72.044 231.667 C 77.111 231.667,77.333 231.639,77.333 231.000 C 77.333 230.572,77.556 230.333,77.954 230.333 C 78.449 230.333,78.621 229.982,78.812 228.583 C 78.942 227.621,79.106 226.458,79.175 226.000 C 79.244 225.542,79.396 223.517,79.512 221.500 C 79.628 219.483,79.765 217.198,79.816 216.422 C 79.945 214.476,79.189 210.206,78.327 208.000 C 77.933 206.992,77.531 205.904,77.433 205.583 C 77.335 205.262,76.973 205.000,76.628 205.000 C 76.283 205.000,76.000 204.850,76.000 204.667 C 76.000 204.347,69.949 204.287,66.796 204.575 M330.700 226.917 C 329.118 228.221,327.522 231.806,326.287 236.833 C 325.215 241.192,323.281 247.623,322.326 250.000 C 315.494 267.009,303.741 286.434,297.092 291.707 C 296.773 291.960,297.297 291.255,298.256 290.141 L 300.000 288.115 300.000 285.724 C 300.000 284.409,299.867 283.333,299.706 283.333 C 299.544 283.333,299.333 283.033,299.237 282.667 C 298.748 280.800,294.319 282.687,290.667 286.319 C 285.332 291.623,279.287 296.917,275.805 299.333 C 257.642 311.939,243.680 317.829,224.833 320.840 C 220.123 321.592,218.063 323.736,217.505 328.469 L 217.272 330.438 220.386 330.226 C 237.742 329.046,258.461 321.514,275.237 310.286 C 277.673 308.656,279.667 307.465,279.667 307.641 C 279.667 307.817,279.534 308.043,279.371 308.143 C 278.967 308.393,277.902 312.419,278.048 313.143 C 278.302 314.396,289.219 305.710,296.290 298.629 C 315.223 279.669,327.700 255.103,331.443 229.417 C 331.914 226.184,331.850 225.968,330.700 226.917 M268.000 318.866 C 265.964 319.557,258.707 323.717,257.167 325.076 C 256.283 325.855,265.198 321.499,268.833 319.375 C 271.548 317.789,271.414 317.707,268.000 318.866 M201.000 325.198 C 200.358 325.273,198.408 325.485,196.667 325.669 C 192.664 326.093,190.333 326.667,190.333 327.230 C 190.333 327.470,190.108 327.667,189.833 327.667 C 189.506 327.667,189.333 327.994,189.333 328.615 L 189.333 329.564 192.583 329.956 C 198.318 330.648,206.716 331.039,210.917 330.810 C 215.349 330.567,215.371 330.554,214.808 328.500 C 214.293 326.620,205.948 324.624,201.000 325.198 " stroke="none" fill="#c9cace" fill-rule="evenodd"></path><path id="path1" d="M244.584 89.793 C 250.023 91.586,264.613 92.399,279.978 91.767 L 286.456 91.500 285.144 90.656 C 283.904 89.859,283.689 89.828,281.167 90.086 C 277.621 90.450,251.089 90.131,248.333 89.691 C 247.142 89.501,245.267 89.267,244.167 89.171 L 242.167 88.996 244.584 89.793 M166.000 90.673 C 159.332 92.229,126.754 93.565,127.544 92.250 C 127.799 91.827,127.408 92.087,125.558 93.575 L 124.616 94.333 132.891 94.329 C 142.890 94.323,152.539 93.867,157.605 93.161 C 159.665 92.873,161.520 92.743,161.727 92.871 C 161.957 93.013,162.011 92.953,161.865 92.718 C 161.711 92.469,161.905 92.333,162.416 92.333 C 162.849 92.333,164.396 91.891,165.852 91.350 C 168.393 90.406,168.460 90.098,166.000 90.673 M275.000 93.677 C 264.340 93.967,262.979 94.381,264.661 96.825 C 265.200 97.608,265.534 98.367,265.404 98.511 C 265.273 98.655,265.354 98.666,265.583 98.534 C 265.813 98.402,266.000 98.425,266.000 98.585 C 266.000 98.745,266.555 99.141,267.234 99.465 C 267.913 99.789,270.103 101.018,272.102 102.197 L 275.735 104.341 274.354 102.691 C 271.050 98.745,272.045 98.304,284.905 98.013 C 290.078 97.896,294.401 97.711,294.511 97.600 C 294.683 97.428,292.845 96.017,289.676 93.887 C 288.773 93.281,289.303 93.288,275.000 93.677 M126.092 96.319 L 121.685 96.500 119.759 97.921 C 118.700 98.703,117.335 99.758,116.726 100.266 L 115.619 101.188 118.226 100.951 C 119.660 100.821,124.433 100.712,128.833 100.709 C 139.336 100.703,140.468 101.086,138.545 103.992 L 137.699 105.270 142.298 102.552 C 152.522 96.508,149.521 95.354,126.092 96.319 M308.333 109.500 C 308.955 110.142,309.539 110.667,309.631 110.667 C 309.722 110.667,309.289 110.142,308.667 109.500 C 308.045 108.858,307.461 108.333,307.369 108.333 C 307.278 108.333,307.711 108.858,308.333 109.500 M105.649 110.250 L 104.500 111.500 105.750 110.351 C 106.438 109.719,107.000 109.157,107.000 109.101 C 107.000 108.847,106.718 109.087,105.649 110.250 M284.667 112.259 C 284.667 113.529,284.282 113.658,281.923 113.178 C 280.872 112.964,280.047 112.817,280.089 112.850 C 281.796 114.186,287.187 118.739,289.167 120.516 C 293.681 124.569,295.705 125.115,295.508 122.226 L 295.397 120.594 296.641 121.714 C 297.325 122.329,296.598 121.585,295.025 120.059 C 291.886 117.012,287.021 112.783,285.583 111.851 L 284.667 111.257 284.667 112.259 M142.866 118.333 C 141.462 119.250,140.236 120.000,140.143 120.000 C 140.049 120.000,139.567 120.279,139.070 120.619 C 138.573 120.960,136.967 122.035,135.500 123.008 C 134.033 123.980,131.036 125.979,128.839 127.450 C 126.642 128.920,124.542 130.158,124.172 130.200 C 123.802 130.243,123.500 130.302,123.500 130.331 C 123.500 130.360,123.237 130.435,122.917 130.496 C 122.589 130.559,122.333 130.406,122.333 130.148 C 122.333 129.882,122.128 129.766,121.849 129.874 C 121.457 130.024,121.345 129.593,121.265 127.622 L 121.167 125.185 117.549 129.176 C 113.252 133.917,110.648 137.206,107.264 142.167 C 103.880 147.128,103.431 147.850,103.917 147.551 C 104.240 147.352,104.334 148.067,104.338 150.730 C 104.342 153.072,104.446 154.007,104.667 153.667 C 104.917 153.280,104.991 153.383,104.995 154.124 C 104.999 154.887,105.091 155.006,105.447 154.710 C 105.693 154.506,105.993 154.438,106.114 154.558 C 106.235 154.679,106.333 154.626,106.333 154.441 C 106.333 154.256,106.858 153.822,107.500 153.477 C 108.142 153.131,108.667 152.761,108.667 152.653 C 108.667 152.546,109.529 151.565,110.583 150.473 C 111.638 149.382,113.067 147.848,113.761 147.065 C 114.480 146.252,115.182 145.740,115.396 145.872 C 115.601 145.999,115.679 145.957,115.569 145.778 C 115.458 145.599,115.622 145.211,115.934 144.916 C 116.245 144.621,116.650 144.182,116.833 143.940 C 122.552 136.378,131.157 127.305,135.795 123.945 L 137.100 123.000 207.436 123.000 L 277.772 123.000 275.469 121.154 L 273.167 119.307 207.507 119.322 C 144.814 119.336,141.884 119.310,142.673 118.752 C 143.453 118.200,147.163 118.157,207.333 118.000 C 268.363 117.841,271.120 117.808,270.100 117.250 C 269.095 116.700,265.461 116.667,207.226 116.667 L 145.419 116.667 142.866 118.333 M304.876 132.333 C 313.560 146.963,319.689 158.024,324.983 168.619 C 326.115 170.884,327.113 172.664,327.202 172.575 C 328.422 171.356,312.377 140.722,306.331 132.726 C 302.279 127.367,301.861 127.254,304.876 132.333 M101.833 150.667 C 101.549 151.217,101.391 151.667,101.483 151.667 C 101.575 151.667,101.882 151.217,102.167 150.667 C 102.451 150.117,102.609 149.667,102.517 149.667 C 102.425 149.667,102.118 150.117,101.833 150.667 M312.671 152.601 C 312.661 158.572,311.496 160.829,309.049 159.618 L 307.434 158.818 308.747 161.659 C 309.470 163.222,310.335 165.175,310.669 166.000 C 311.004 166.825,311.543 168.100,311.867 168.833 C 312.192 169.567,312.431 170.274,312.399 170.405 C 312.367 170.536,312.549 170.563,312.804 170.465 C 313.058 170.368,313.365 170.448,313.486 170.644 C 313.607 170.840,314.055 171.000,314.482 171.000 C 315.955 171.000,316.462 169.169,316.606 163.333 L 316.733 158.165 315.473 155.511 C 314.780 154.051,313.867 152.251,313.444 151.512 L 312.675 150.167 312.671 152.601 M100.167 153.667 C 99.882 154.217,99.725 154.667,99.816 154.667 C 99.908 154.667,100.216 154.217,100.500 153.667 C 100.784 153.117,100.942 152.667,100.850 152.667 C 100.759 152.667,100.451 153.117,100.167 153.667 M96.558 160.758 C 95.879 162.083,94.930 163.917,94.451 164.833 C 92.934 167.732,92.466 168.704,89.881 174.333 C 88.492 177.358,87.163 180.245,86.928 180.747 C 86.693 181.250,86.377 181.663,86.226 181.664 C 83.952 181.686,80.265 215.427,82.317 217.443 C 82.623 217.744,82.664 217.605,82.497 216.833 C 82.362 216.212,82.392 215.992,82.577 216.251 C 82.873 216.668,84.518 210.375,85.343 205.667 C 85.552 204.475,86.005 202.000,86.351 200.167 C 86.696 198.333,87.218 195.183,87.511 193.167 C 89.096 182.277,93.321 167.947,97.228 160.217 C 97.677 159.328,97.988 158.544,97.919 158.475 C 97.850 158.406,97.238 159.433,96.558 160.758 M318.492 169.667 C 318.582 173.975,318.914 181.400,319.230 186.167 C 320.022 198.112,320.024 222.836,319.235 234.801 C 318.922 239.550,318.588 246.750,318.493 250.801 L 318.320 258.167 319.063 256.667 C 319.700 255.380,319.820 254.527,319.903 250.667 C 319.957 248.192,320.245 240.767,320.544 234.167 C 321.230 219.004,321.222 201.346,320.523 187.000 C 320.223 180.858,319.997 173.479,320.019 170.600 C 320.058 165.601,320.021 165.289,319.194 163.600 L 318.328 161.833 318.492 169.667 M327.239 183.301 C 326.924 183.834,326.667 184.593,326.667 184.988 C 326.667 185.383,326.542 185.629,326.390 185.535 C 326.237 185.441,326.386 186.782,326.719 188.515 C 327.053 190.248,327.596 194.092,327.926 197.056 L 328.527 202.447 329.170 200.307 C 329.940 197.743,330.650 196.844,331.653 197.162 C 332.333 197.378,332.355 197.313,332.158 195.611 C 331.937 193.701,330.312 183.518,330.221 183.473 C 330.191 183.458,329.796 183.195,329.342 182.889 C 328.208 182.124,327.899 182.184,327.239 183.301 M313.790 250.147 C 313.216 250.397,312.643 250.768,312.517 250.973 C 312.391 251.177,312.124 251.244,311.925 251.121 C 311.720 250.994,311.659 251.051,311.784 251.253 C 311.905 251.449,311.884 251.660,311.736 251.722 C 311.589 251.783,310.894 253.183,310.191 254.833 C 309.489 256.483,308.334 258.993,307.624 260.409 C 306.123 263.405,306.075 263.603,307.083 262.651 C 310.746 259.194,312.350 260.705,312.751 267.987 L 312.833 269.474 314.790 265.700 L 316.747 261.926 316.608 257.029 C 316.481 252.557,315.761 249.477,314.889 249.680 C 314.859 249.687,314.364 249.897,313.790 250.147 M324.017 257.258 C 320.402 266.208,314.417 276.864,308.691 284.546 C 307.853 285.671,306.942 286.936,306.667 287.358 C 306.392 287.779,305.792 288.496,305.333 288.950 C 304.875 289.404,304.715 289.651,304.977 289.497 C 305.240 289.344,305.034 289.770,304.521 290.443 C 304.008 291.116,303.512 291.667,303.420 291.667 C 303.327 291.667,303.458 291.404,303.709 291.083 C 304.123 290.555,304.112 290.543,303.587 290.954 C 303.268 291.204,303.095 291.551,303.202 291.724 C 303.309 291.897,302.513 293.118,301.432 294.436 C 300.352 295.755,298.510 298.033,297.339 299.500 C 296.168 300.967,294.375 303.067,293.355 304.167 C 292.335 305.268,290.300 307.498,288.833 309.123 C 287.367 310.748,285.979 312.275,285.750 312.515 C 285.521 312.756,285.333 313.113,285.333 313.310 C 285.333 313.506,285.174 313.667,284.980 313.667 C 284.786 313.667,284.721 313.818,284.835 314.002 C 284.949 314.187,284.809 314.428,284.523 314.537 C 284.237 314.647,284.087 314.871,284.188 315.035 C 284.290 315.199,284.198 315.333,283.984 315.333 C 283.770 315.333,283.678 315.549,283.779 315.812 C 283.880 316.075,283.783 316.363,283.565 316.452 C 283.346 316.541,283.579 316.626,284.083 316.640 C 285.032 316.668,285.313 317.134,284.583 317.469 C 284.354 317.574,287.917 317.570,292.500 317.461 L 300.833 317.262 302.333 316.048 C 305.851 313.200,318.333 300.063,318.333 299.209 C 318.333 299.094,315.399 299.000,311.814 299.000 C 307.552 299.000,305.365 298.885,305.500 298.667 C 305.613 298.483,305.454 298.333,305.146 298.333 C 304.754 298.333,304.679 298.208,304.895 297.917 C 305.066 297.688,305.174 297.125,305.135 296.667 C 305.052 295.685,306.292 293.120,308.709 289.273 C 315.564 278.362,320.433 268.497,324.375 257.535 C 326.065 252.836,325.865 252.681,324.017 257.258 M104.995 266.876 C 104.991 267.617,104.917 267.720,104.667 267.333 C 104.445 266.991,104.342 267.806,104.338 269.926 L 104.333 273.019 106.329 276.187 C 109.925 281.895,116.975 290.772,120.455 293.975 L 121.333 294.783 121.333 292.684 C 121.333 290.856,121.398 290.639,121.833 291.000 C 122.244 291.341,122.333 291.315,122.333 290.854 C 122.333 290.546,122.483 290.387,122.667 290.500 C 122.850 290.613,123.000 290.529,123.000 290.312 C 123.000 290.019,123.127 290.024,123.500 290.333 C 123.775 290.562,124.000 290.646,124.000 290.522 C 124.000 290.252,125.889 291.263,126.833 292.038 C 128.178 293.141,139.593 300.623,142.667 302.416 C 149.903 306.636,152.311 307.618,146.912 304.147 C 143.374 301.872,139.542 299.067,137.230 297.059 L 135.626 295.667 207.354 295.667 C 275.613 295.667,279.060 295.695,278.637 296.250 C 278.132 296.912,278.906 296.259,283.169 292.423 C 285.958 289.914,293.026 282.385,293.278 281.655 C 293.349 281.449,262.544 281.333,207.378 281.333 L 121.367 281.333 120.100 279.786 C 118.395 277.703,117.149 276.347,117.693 277.167 C 117.936 277.533,118.431 278.171,118.792 278.583 C 119.154 278.996,119.307 279.333,119.132 279.333 C 118.958 279.333,118.536 278.996,118.194 278.583 C 117.853 278.171,116.432 276.633,115.037 275.166 C 113.642 273.699,111.424 271.350,110.109 269.946 C 108.794 268.542,107.648 267.463,107.563 267.548 C 107.479 267.632,107.092 267.299,106.705 266.806 C 106.317 266.313,106.000 266.099,106.000 266.329 C 106.000 266.664,105.899 266.665,105.500 266.333 C 105.075 265.981,104.999 266.063,104.995 266.876 M95.833 268.000 C 96.118 268.550,96.425 269.000,96.517 269.000 C 96.609 269.000,96.451 268.550,96.167 268.000 C 95.882 267.450,95.575 267.000,95.483 267.000 C 95.391 267.000,95.549 267.450,95.833 268.000 M96.667 269.461 C 96.667 270.626,104.928 285.186,108.982 291.167 C 112.612 296.523,114.776 300.667,113.942 300.667 C 113.714 300.667,113.735 300.848,114.000 301.167 C 114.341 301.577,114.315 301.667,113.854 301.667 C 113.546 301.667,113.377 301.801,113.478 301.965 C 113.836 302.544,112.547 302.667,106.112 302.667 C 102.191 302.667,99.655 302.791,99.722 302.981 C 100.204 304.340,112.646 316.377,116.833 319.533 L 118.167 320.539 126.818 320.398 C 134.299 320.277,135.385 320.195,134.838 319.796 C 134.253 319.368,134.290 319.333,135.333 319.333 C 136.396 319.333,136.424 319.305,135.814 318.844 C 135.455 318.573,135.351 318.350,135.580 318.344 C 135.857 318.337,135.802 318.110,135.413 317.656 C 135.094 317.283,134.843 316.871,134.855 316.739 C 134.881 316.460,134.541 316.086,129.633 311.000 C 126.304 307.551,119.375 299.967,113.234 293.052 C 108.360 287.564,102.873 279.900,98.882 273.009 C 97.663 270.905,96.667 269.309,96.667 269.461 M126.667 300.167 C 127.289 300.808,127.872 301.333,127.964 301.333 C 128.056 301.333,127.622 300.808,127.000 300.167 C 126.378 299.525,125.794 299.000,125.703 299.000 C 125.611 299.000,126.045 299.525,126.667 300.167 M136.333 313.162 C 136.333 313.820,148.338 320.932,153.624 323.407 C 159.847 326.320,168.585 329.677,168.162 328.992 C 167.983 328.703,170.587 328.822,172.232 329.178 C 172.634 329.265,173.759 329.415,174.732 329.511 C 175.704 329.606,176.834 329.758,177.242 329.847 C 180.122 330.476,189.539 331.074,198.000 331.166 C 206.538 331.259,207.087 331.237,202.167 331.001 C 189.258 330.381,176.672 327.806,165.234 323.445 C 162.997 322.592,160.979 321.893,160.750 321.892 C 160.521 321.890,160.333 321.769,160.333 321.622 C 160.333 321.475,160.084 321.450,159.779 321.567 C 159.428 321.702,159.305 321.648,159.446 321.421 C 159.589 321.189,159.414 321.129,158.948 321.250 C 158.413 321.390,158.298 321.327,158.499 321.001 C 158.680 320.708,158.640 320.644,158.377 320.806 C 157.762 321.186,155.068 320.259,145.435 316.348 C 142.649 315.217,139.949 314.236,139.435 314.169 C 138.921 314.101,138.462 314.017,138.417 313.981 C 138.371 313.946,138.221 313.893,138.083 313.863 C 137.946 313.834,137.496 313.622,137.083 313.393 C 136.671 313.164,136.333 313.060,136.333 313.162 M197.417 335.230 C 197.737 335.314,198.262 335.314,198.583 335.230 C 198.904 335.146,198.642 335.077,198.000 335.077 C 197.358 335.077,197.096 335.146,197.417 335.230 M203.088 335.573 C 203.595 335.649,204.345 335.647,204.755 335.568 C 205.165 335.489,204.750 335.426,203.833 335.429 C 202.917 335.431,202.581 335.496,203.088 335.573 M210.583 335.569 C 210.996 335.648,211.671 335.648,212.083 335.569 C 212.496 335.489,212.158 335.424,211.333 335.424 C 210.508 335.424,210.171 335.489,210.583 335.569 " stroke="none" fill="#686164" fill-rule="evenodd"></path><path id="path2" d="M199.333 61.651 C 149.287 64.824,104.232 92.337,79.487 134.833 C 77.305 138.582,76.885 139.365,74.571 144.000 C 52.451 188.323,53.931 242.320,78.413 284.110 C 79.469 285.913,80.333 287.463,80.333 287.556 C 80.333 287.649,80.757 288.349,81.274 289.112 C 81.791 289.875,83.319 292.150,84.670 294.167 C 95.062 309.686,110.705 325.137,125.833 334.825 C 133.140 339.503,134.289 340.163,140.833 343.429 C 152.492 349.247,159.217 351.734,172.500 355.141 C 199.103 361.963,230.028 360.557,256.500 351.322 C 353.287 317.557,388.110 199.658,325.262 118.516 C 295.968 80.694,247.089 58.622,199.333 61.651 M216.500 67.678 C 240.467 69.279,264.041 76.901,282.824 89.120 L 286.482 91.500 279.991 91.768 C 271.084 92.135,256.046 91.833,251.520 91.196 C 249.514 90.914,247.801 90.754,247.714 90.841 C 247.627 90.929,247.758 91.000,248.005 91.000 C 248.770 91.000,259.320 95.325,262.753 97.045 L 266.005 98.675 264.835 97.046 C 262.837 94.266,263.811 94.010,277.833 93.629 L 288.833 93.330 291.500 95.143 C 334.234 124.204,357.542 182.248,347.792 235.333 C 342.288 265.304,326.915 293.422,305.036 313.536 L 300.906 317.333 298.870 317.334 C 297.750 317.335,293.983 317.411,290.500 317.504 C 287.017 317.597,284.354 317.584,284.583 317.475 C 285.311 317.131,285.033 316.668,284.083 316.640 C 283.579 316.626,283.346 316.541,283.565 316.452 C 283.783 316.363,283.880 316.075,283.779 315.812 C 283.678 315.549,283.770 315.333,283.984 315.333 C 284.198 315.333,284.290 315.199,284.188 315.035 C 284.087 314.871,284.237 314.647,284.523 314.537 C 284.809 314.428,284.949 314.187,284.835 314.002 C 284.721 313.818,284.786 313.667,284.980 313.667 C 285.174 313.667,285.333 313.506,285.333 313.310 C 285.333 313.113,285.521 312.756,285.750 312.515 C 285.979 312.275,287.367 310.748,288.833 309.123 C 290.300 307.498,292.336 305.268,293.358 304.167 C 294.379 303.067,296.404 300.690,297.858 298.884 C 301.229 294.696,305.709 288.801,304.356 290.333 C 260.762 339.709,192.674 350.096,139.583 315.468 C 136.649 313.554,135.184 312.338,137.083 313.393 C 137.496 313.622,137.946 313.834,138.083 313.863 C 138.221 313.893,138.371 313.946,138.417 313.981 C 138.462 314.017,138.923 314.101,139.439 314.169 C 139.956 314.237,142.356 315.114,144.773 316.119 C 147.189 317.123,150.067 318.274,151.167 318.677 C 153.687 319.600,159.782 321.666,159.987 321.666 C 160.072 321.666,157.747 320.490,154.820 319.051 C 134.846 309.232,117.473 293.875,106.329 276.187 L 104.333 273.019 104.338 269.926 C 104.342 267.806,104.445 266.991,104.667 267.333 C 104.917 267.720,104.991 267.617,104.995 266.876 C 104.999 266.063,105.075 265.981,105.500 266.333 C 105.899 266.665,106.000 266.664,106.000 266.329 C 106.000 266.099,106.317 266.313,106.705 266.806 C 107.092 267.299,107.479 267.632,107.563 267.548 C 107.648 267.463,108.794 268.542,110.109 269.946 C 111.424 271.350,113.642 273.699,115.037 275.166 C 116.432 276.633,117.853 278.171,118.194 278.583 C 119.504 280.167,119.257 279.240,117.883 277.417 C 89.573 239.854,87.835 187.916,113.576 148.674 C 116.032 144.930,116.063 144.495,113.684 147.161 C 113.033 147.891,111.638 149.382,110.583 150.473 C 109.529 151.565,108.667 152.546,108.667 152.653 C 108.667 152.761,108.142 153.131,107.500 153.477 C 106.858 153.822,106.333 154.256,106.333 154.441 C 106.333 154.626,106.235 154.679,106.114 154.558 C 105.993 154.438,105.693 154.506,105.447 154.710 C 105.091 155.006,104.999 154.887,104.995 154.124 C 104.991 153.391,104.916 153.284,104.674 153.666 C 104.461 154.003,104.327 153.030,104.263 150.666 L 104.167 147.167 101.607 151.667 C 94.588 164.009,89.629 178.608,87.511 193.167 C 87.218 195.183,86.696 198.333,86.351 200.167 C 86.005 202.000,85.552 204.475,85.343 205.667 C 84.562 210.125,82.872 216.665,82.608 216.251 C 82.149 215.529,82.616 223.092,83.339 228.068 C 86.849 252.224,97.459 275.289,113.234 293.052 C 119.375 299.967,126.304 307.551,129.633 311.000 C 134.661 316.210,135.035 316.621,134.927 316.812 C 134.876 316.904,135.094 317.283,135.413 317.656 C 135.802 318.110,135.857 318.337,135.580 318.344 C 135.351 318.350,135.455 318.573,135.814 318.844 C 136.424 319.305,136.396 319.333,135.333 319.333 C 134.290 319.333,134.253 319.368,134.838 319.796 C 135.385 320.195,134.299 320.277,126.818 320.398 L 118.167 320.539 116.833 319.533 C 103.543 309.515,88.631 290.898,79.851 273.364 C 50.364 214.475,65.948 141.240,116.667 100.354 C 122.184 95.906,120.311 96.394,132.874 96.129 C 146.587 95.840,148.678 96.175,147.486 98.472 C 147.219 98.988,147.000 99.457,147.000 99.514 C 147.000 99.572,149.287 98.518,152.083 97.173 C 154.879 95.828,158.442 94.181,160.000 93.513 C 161.558 92.844,162.414 92.385,161.900 92.493 C 156.432 93.635,145.586 94.322,132.891 94.329 L 124.616 94.333 125.558 93.554 C 126.076 93.125,127.850 91.874,129.500 90.775 C 154.769 73.940,186.027 65.642,216.500 67.678 M142.833 118.667 C 141.834 119.329,141.866 119.329,207.333 119.320 C 272.509 119.311,272.829 119.308,272.046 118.656 C 270.800 117.618,144.401 117.628,142.833 118.667 M295.509 122.179 C 295.637 124.121,294.901 124.483,292.917 123.457 C 292.195 123.083,293.016 124.131,295.597 126.876 C 303.414 135.188,309.740 144.148,314.586 153.769 L 316.736 158.038 316.607 163.269 C 316.434 170.342,315.615 172.074,313.195 170.488 C 312.446 169.997,312.473 170.156,313.844 174.255 C 321.776 197.964,321.557 223.567,313.220 247.447 C 311.927 251.149,311.823 251.637,312.446 251.053 C 315.273 248.405,316.400 250.007,316.609 256.973 L 316.755 261.823 317.489 260.162 C 318.146 258.673,318.245 257.718,318.441 251.000 C 318.561 246.875,318.918 239.600,319.232 234.833 C 320.025 222.837,320.023 198.133,319.230 186.167 C 318.611 176.826,318.110 162.000,318.413 162.000 C 319.146 162.000,323.998 175.895,325.338 181.833 C 326.083 185.132,326.667 186.539,326.667 185.035 C 326.667 183.081,327.993 181.965,329.259 182.852 C 330.158 183.482,330.157 183.516,329.323 180.000 C 328.236 175.422,327.735 174.085,325.256 169.167 C 318.724 156.205,314.185 148.049,303.217 129.567 C 302.456 128.284,300.386 125.720,298.616 123.868 L 295.399 120.500 295.509 122.179 M137.556 297.339 C 166.642 322.372,212.707 328.949,250.333 313.442 C 259.436 309.691,275.651 299.801,278.677 296.155 C 279.032 295.727,270.279 295.667,207.347 295.667 L 135.613 295.667 137.556 297.339 " stroke="none" fill="#4a484b" fill-rule="evenodd"></path><path id="path3" d="M237.333 87.861 C 239.075 88.316,241.250 88.763,242.167 88.854 C 243.083 88.944,244.808 89.164,246.000 89.343 C 252.210 90.274,274.792 90.718,281.647 90.044 L 283.794 89.833 282.359 88.887 C 281.569 88.366,281.025 88.103,281.148 88.303 C 281.308 88.561,278.736 88.691,272.270 88.750 C 257.200 88.888,250.979 88.694,242.540 87.822 C 238.162 87.370,234.487 87.007,234.374 87.016 C 234.260 87.025,235.592 87.405,237.333 87.861 M172.167 88.676 C 161.166 90.392,151.789 91.019,137.723 90.980 L 129.278 90.957 128.223 91.796 L 127.167 92.635 135.500 92.648 C 152.358 92.673,165.131 91.484,172.500 89.203 C 175.222 88.360,175.130 88.214,172.167 88.676 M283.833 98.000 C 272.248 98.283,271.154 98.808,274.245 102.604 C 276.635 105.539,276.125 106.781,272.667 106.450 C 271.475 106.336,270.575 106.318,270.667 106.411 C 270.758 106.504,272.558 107.743,274.667 109.164 C 276.775 110.585,278.769 111.984,279.098 112.272 C 279.427 112.561,279.952 112.838,280.265 112.888 C 280.578 112.939,281.511 113.108,282.339 113.266 C 284.306 113.639,284.667 113.484,284.667 112.267 L 284.667 111.257 285.556 111.839 C 286.045 112.159,285.407 111.380,284.139 110.106 C 277.757 103.698,278.526 102.728,290.333 102.295 C 294.825 102.130,298.875 101.959,299.333 101.914 C 300.917 101.761,295.185 97.652,293.500 97.733 C 292.767 97.768,288.417 97.888,283.833 98.000 M117.971 100.969 C 115.965 101.150,110.000 105.105,110.000 106.254 C 110.000 106.355,110.268 106.194,110.596 105.897 C 111.551 105.033,129.798 104.909,131.096 105.758 C 132.205 106.483,132.221 106.963,131.204 108.988 L 130.408 110.572 133.923 108.111 C 135.857 106.758,137.651 105.392,137.911 105.075 C 138.207 104.714,138.292 104.686,138.138 105.000 C 137.996 105.289,138.019 105.385,138.192 105.226 C 138.357 105.076,138.500 104.776,138.510 104.560 C 138.519 104.344,138.729 103.764,138.974 103.271 C 140.108 100.999,138.679 100.657,128.333 100.721 C 123.842 100.749,119.179 100.860,117.971 100.969 M161.333 106.797 C 157.942 107.959,153.817 109.388,152.167 109.972 C 150.517 110.555,148.567 111.090,147.833 111.160 C 147.100 111.230,146.500 111.315,146.500 111.347 C 146.500 111.380,146.012 111.447,145.417 111.498 C 144.524 111.573,144.333 111.471,144.333 110.920 C 144.333 110.375,144.244 110.325,143.852 110.651 C 143.444 110.990,143.354 110.785,143.268 109.311 L 143.167 107.571 139.085 110.301 C 131.259 115.537,125.195 120.765,117.167 129.198 C 114.050 132.472,110.997 135.679,110.383 136.325 C 109.769 136.971,108.719 138.157,108.050 138.960 C 107.381 139.764,106.416 140.889,105.906 141.460 C 105.395 142.032,104.270 143.391,103.406 144.480 C 101.517 146.858,98.111 150.334,97.888 150.110 C 97.800 150.022,97.628 150.263,97.506 150.646 C 97.385 151.030,97.164 151.268,97.015 151.176 C 95.620 150.314,83.942 181.147,85.222 182.315 C 85.333 182.417,85.492 182.313,85.573 182.083 C 85.655 181.854,85.897 181.665,86.111 181.664 C 86.325 181.663,86.693 181.250,86.928 180.747 C 87.163 180.245,88.492 177.358,89.881 174.333 C 92.151 169.391,92.993 167.626,94.094 165.504 C 94.283 165.139,95.712 162.364,97.269 159.337 C 104.184 145.892,109.315 138.260,117.549 129.176 L 121.167 125.185 121.265 127.622 C 121.345 129.593,121.457 130.024,121.849 129.874 C 122.128 129.766,122.333 129.882,122.333 130.148 C 122.333 130.406,122.589 130.559,122.917 130.496 C 123.237 130.435,123.500 130.360,123.500 130.331 C 123.500 130.302,123.802 130.243,124.172 130.200 C 124.542 130.158,126.642 128.920,128.839 127.450 C 131.036 125.979,134.033 123.980,135.500 123.008 C 136.967 122.035,138.573 120.960,139.070 120.619 C 139.567 120.279,140.056 120.000,140.157 120.000 C 140.258 120.000,141.413 119.287,142.722 118.417 L 145.103 116.833 207.135 116.667 C 262.471 116.518,269.077 116.446,268.333 116.000 C 267.604 115.562,260.058 115.479,207.667 115.333 L 147.833 115.167 150.667 113.390 C 153.796 111.428,162.105 107.261,166.000 105.702 C 170.235 104.006,167.817 104.574,161.333 106.797 M135.800 123.958 C 135.085 124.484,133.965 125.422,133.311 126.041 C 132.658 126.660,132.369 126.979,132.670 126.751 C 133.103 126.422,148.746 126.317,207.409 126.251 L 281.600 126.167 279.776 124.583 L 277.951 123.000 207.526 123.000 L 137.100 123.000 135.800 123.958 M294.667 126.167 C 295.289 126.808,295.872 127.333,295.964 127.333 C 296.056 127.333,295.622 126.808,295.000 126.167 C 294.378 125.525,293.794 125.000,293.703 125.000 C 293.611 125.000,294.045 125.525,294.667 126.167 M126.818 132.083 L 125.500 133.500 126.917 132.182 C 128.234 130.957,128.487 130.667,128.234 130.667 C 128.180 130.667,127.542 131.304,126.818 132.083 M310.783 139.583 C 313.653 144.494,317.915 152.147,321.225 158.333 C 324.464 164.387,324.697 164.522,322.151 158.871 C 319.032 151.949,309.761 136.000,308.856 136.000 C 308.764 136.000,309.631 137.612,310.783 139.583 M308.261 146.564 C 308.007 152.061,306.366 153.224,303.083 150.234 C 302.671 149.858,302.333 149.646,302.333 149.762 C 302.333 150.033,306.857 158.044,307.295 158.548 C 307.478 158.757,307.523 159.057,307.397 159.214 C 307.270 159.372,307.291 159.401,307.442 159.280 C 307.594 159.159,308.390 159.358,309.212 159.721 C 311.134 160.571,311.470 160.298,312.145 157.328 C 313.322 152.155,312.762 149.734,309.157 144.397 L 308.412 143.295 308.261 146.564 M320.017 171.167 C 320.011 174.100,320.242 181.300,320.531 187.167 C 321.224 201.220,321.221 219.323,320.525 234.167 C 320.215 240.767,320.008 247.967,320.064 250.167 L 320.167 254.167 320.887 252.000 C 322.673 246.631,322.605 172.034,320.810 167.716 L 320.028 165.833 320.017 171.167 M332.338 196.939 C 332.335 197.232,332.102 197.305,331.638 197.157 C 329.525 196.487,328.359 200.952,328.633 208.667 L 328.841 214.500 329.424 212.678 C 330.248 210.101,331.547 208.224,332.359 208.437 C 333.078 208.625,333.362 198.075,332.667 197.000 C 332.429 196.633,332.342 196.616,332.338 196.939 M95.417 205.833 C 95.421 206.567,95.489 206.827,95.569 206.413 C 95.649 205.998,95.646 205.398,95.562 205.079 C 95.479 204.761,95.414 205.100,95.417 205.833 M319.424 206.333 C 319.424 207.158,319.489 207.496,319.569 207.083 C 319.648 206.671,319.648 205.996,319.569 205.583 C 319.489 205.171,319.424 205.508,319.424 206.333 M95.417 214.167 C 95.421 214.900,95.489 215.161,95.569 214.746 C 95.649 214.331,95.646 213.731,95.562 213.413 C 95.479 213.094,95.414 213.433,95.417 214.167 M332.744 220.667 C 332.744 221.308,332.813 221.571,332.896 221.250 C 332.980 220.929,332.980 220.404,332.896 220.083 C 332.813 219.762,332.744 220.025,332.744 220.667 M331.891 227.813 C 331.161 233.311,329.482 240.911,327.828 246.198 C 327.146 248.381,326.542 250.392,326.486 250.667 C 326.430 250.942,326.354 251.204,326.317 251.250 C 326.280 251.296,326.212 251.483,326.167 251.667 C 326.121 251.850,326.046 252.075,326.000 252.167 C 325.954 252.258,325.879 252.483,325.833 252.667 C 325.787 252.850,325.714 253.112,325.670 253.250 C 325.519 253.722,325.435 254.168,325.384 254.770 C 325.356 255.101,325.185 255.281,325.004 255.169 C 324.823 255.057,324.753 255.170,324.849 255.421 C 325.623 257.439,316.743 276.175,309.219 288.396 C 306.232 293.249,305.049 295.644,305.135 296.667 C 305.174 297.125,305.066 297.688,304.895 297.917 C 304.679 298.208,304.754 298.333,305.146 298.333 C 305.454 298.333,305.613 298.483,305.500 298.667 C 305.365 298.885,307.578 298.997,311.897 298.992 L 318.500 298.984 320.333 296.635 C 324.599 291.168,330.726 281.774,333.249 276.832 L 333.930 275.500 328.469 275.599 C 323.654 275.686,323.032 275.637,323.207 275.182 C 323.348 274.815,323.197 274.667,322.683 274.667 C 322.265 274.667,322.051 274.520,322.176 274.318 C 322.295 274.126,322.438 273.339,322.494 272.568 C 322.678 270.035,323.015 268.406,323.866 265.936 C 328.446 252.656,331.492 238.651,332.534 226.083 C 332.880 221.921,332.558 222.786,331.891 227.813 M86.363 244.333 C 86.270 246.176,91.116 262.152,94.487 271.116 C 94.960 272.372,95.415 274.022,95.500 274.783 C 95.584 275.544,95.719 276.729,95.799 277.417 C 95.925 278.500,95.854 278.667,95.265 278.667 C 94.732 278.667,94.666 278.764,94.958 279.116 C 95.265 279.486,94.706 279.604,91.780 279.783 C 85.211 280.185,83.822 280.098,83.188 279.250 C 82.329 278.099,83.854 280.738,86.569 285.102 C 89.666 290.078,92.847 294.521,96.575 299.072 L 99.500 302.645 106.056 302.656 C 112.540 302.667,113.837 302.546,113.478 301.965 C 113.377 301.801,113.546 301.667,113.854 301.667 C 114.315 301.667,114.341 301.577,114.000 301.167 C 113.735 300.848,113.714 300.667,113.942 300.667 C 114.776 300.667,112.612 296.523,108.982 291.167 C 100.396 278.500,91.278 259.798,87.205 246.500 C 86.756 245.033,86.377 244.058,86.363 244.333 M308.267 261.782 C 307.478 262.317,306.723 262.922,306.588 263.127 C 306.134 263.818,306.329 262.975,306.861 261.947 C 307.151 261.386,307.246 261.015,307.071 261.123 C 306.896 261.231,306.566 261.772,306.337 262.326 L 305.920 263.332 207.461 263.416 L 109.003 263.500 110.706 266.333 C 113.348 270.729,116.425 275.229,118.913 278.333 L 121.183 281.167 207.478 281.333 L 293.773 281.500 297.354 276.821 C 304.340 267.694,308.280 266.742,308.337 274.167 C 308.358 276.892,308.304 276.926,311.089 272.398 C 312.952 269.369,313.080 268.520,312.303 264.333 C 311.561 260.340,310.956 259.957,308.267 261.782 M289.151 286.417 L 287.833 287.833 289.250 286.516 C 290.029 285.791,290.667 285.153,290.667 285.099 C 290.667 284.847,290.376 285.099,289.151 286.417 M123.000 290.312 C 123.000 290.529,122.850 290.613,122.667 290.500 C 122.483 290.387,122.333 290.546,122.333 290.854 C 122.333 291.315,122.244 291.341,121.833 291.000 C 121.398 290.638,121.333 290.860,121.333 292.719 L 121.333 294.853 123.417 296.866 C 128.491 301.771,133.211 305.656,139.128 309.798 C 143.285 312.709,143.333 312.725,143.333 311.177 C 143.333 310.286,143.448 310.065,143.833 310.213 C 144.183 310.347,144.333 310.187,144.333 309.683 C 144.333 309.184,144.462 309.044,144.750 309.230 C 144.979 309.378,145.617 309.510,146.167 309.522 C 147.640 309.554,150.070 310.027,150.833 310.429 C 151.451 310.754,161.208 314.213,162.333 314.505 C 162.608 314.576,164.558 315.152,166.667 315.784 C 170.401 316.903,176.986 318.494,179.333 318.845 C 179.975 318.941,178.541 318.425,176.146 317.698 C 165.580 314.492,154.903 309.615,142.500 302.329 C 139.511 300.573,128.101 293.079,126.833 292.038 C 125.889 291.263,124.000 290.252,124.000 290.522 C 124.000 290.646,123.775 290.562,123.500 290.333 C 123.127 290.024,123.000 290.019,123.000 290.312 M206.589 322.242 C 207.188 322.316,208.088 322.314,208.589 322.238 C 209.090 322.162,208.600 322.101,207.500 322.103 C 206.400 322.105,205.990 322.167,206.589 322.242 M236.167 327.708 C 222.900 331.253,194.780 332.361,178.333 329.986 C 177.142 329.814,175.552 329.608,174.801 329.528 C 174.050 329.448,172.925 329.298,172.301 329.194 C 166.842 328.286,166.932 328.850,172.500 330.450 C 183.429 333.591,198.932 335.933,202.404 334.969 C 203.190 334.751,204.208 334.541,204.667 334.503 C 212.486 333.857,224.948 331.472,233.833 328.922 C 239.968 327.160,241.820 326.197,236.167 327.708 M206.417 335.576 C 207.104 335.648,208.229 335.648,208.917 335.576 C 209.604 335.504,209.042 335.445,207.667 335.445 C 206.292 335.445,205.729 335.504,206.417 335.576 " stroke="none" fill="#797477" fill-rule="evenodd"></path><path id="path4" d="M202.250 67.569 C 202.662 67.648,203.338 67.648,203.750 67.569 C 204.162 67.489,203.825 67.424,203.000 67.424 C 202.175 67.424,201.838 67.489,202.250 67.569 M211.250 67.569 C 211.662 67.648,212.338 67.648,212.750 67.569 C 213.162 67.489,212.825 67.424,212.000 67.424 C 211.175 67.424,210.838 67.489,211.250 67.569 M197.667 84.190 C 197.025 84.260,194.250 84.479,191.500 84.676 C 188.750 84.873,183.800 85.332,180.500 85.695 C 169.034 86.959,163.443 87.330,153.333 87.502 C 147.742 87.597,141.245 87.749,138.896 87.840 C 135.902 87.955,134.690 87.898,134.845 87.647 C 135.089 87.252,131.473 89.444,130.138 90.500 L 129.295 91.167 141.807 90.957 C 155.766 90.722,157.931 90.596,165.333 89.587 C 168.175 89.199,171.348 88.871,172.385 88.858 C 173.483 88.844,174.109 88.717,173.885 88.555 C 173.665 88.396,173.946 88.354,174.544 88.456 C 175.118 88.554,175.685 88.537,175.804 88.419 C 175.922 88.300,176.202 88.173,176.426 88.135 C 176.650 88.098,179.458 87.536,182.667 86.886 C 197.966 83.786,212.891 83.516,227.822 86.071 C 230.028 86.448,232.170 86.785,232.581 86.820 C 232.992 86.855,233.418 86.974,233.527 87.083 C 233.637 87.192,234.275 87.206,234.946 87.113 C 235.878 86.985,236.048 87.030,235.667 87.305 C 235.283 87.582,235.408 87.619,236.206 87.467 C 236.777 87.357,240.302 87.573,244.039 87.947 C 253.227 88.866,257.598 88.995,270.500 88.728 L 281.500 88.500 279.667 87.311 C 276.552 85.291,275.206 84.524,275.440 84.902 C 276.056 85.900,241.704 85.858,231.500 84.848 C 226.508 84.354,200.724 83.852,197.667 84.190 M215.000 90.292 C 215.000 92.818,214.759 93.154,212.235 94.135 C 207.895 95.824,203.984 96.229,199.000 95.507 C 198.542 95.440,196.929 95.283,195.417 95.158 C 193.904 95.033,192.667 94.813,192.667 94.669 C 192.667 94.525,192.479 94.414,192.250 94.423 C 190.955 94.471,190.333 94.280,190.333 93.833 C 190.333 93.558,190.117 93.333,189.852 93.333 C 189.522 93.333,189.338 92.881,189.268 91.901 L 189.167 90.469 185.536 91.067 C 180.281 91.933,174.196 93.492,168.667 95.391 C 161.353 97.902,161.588 97.848,159.973 97.365 C 159.193 97.131,158.145 96.529,157.643 96.027 L 156.730 95.114 154.615 96.073 C 153.452 96.600,152.450 97.175,152.388 97.351 C 152.327 97.527,152.116 97.572,151.920 97.451 C 151.701 97.315,151.662 97.389,151.819 97.644 C 152.372 98.539,146.844 103.193,143.000 105.068 C 141.625 105.739,139.075 106.918,137.333 107.688 C 135.592 108.458,133.976 109.240,133.742 109.425 C 133.508 109.610,133.208 109.648,133.075 109.509 C 132.942 109.370,133.267 108.936,133.796 108.545 C 134.326 108.153,135.076 107.558,135.463 107.221 C 136.333 106.464,134.451 107.683,132.097 109.401 L 130.360 110.668 131.180 109.035 C 133.075 105.263,132.038 104.935,119.175 105.244 L 110.850 105.443 106.232 109.972 L 101.615 114.500 107.057 114.229 C 117.599 113.705,120.961 114.234,120.497 116.347 C 119.999 118.615,118.290 121.319,115.337 124.514 C 109.331 131.012,103.495 138.864,99.064 146.408 C 97.088 149.772,95.723 152.477,96.485 151.520 C 96.768 151.164,97.005 151.014,97.012 151.186 C 97.018 151.359,97.238 151.125,97.500 150.667 C 97.762 150.208,97.982 149.942,97.988 150.075 C 98.007 150.452,101.659 146.680,103.406 144.480 C 104.270 143.391,105.395 142.032,105.906 141.460 C 106.416 140.889,107.381 139.764,108.050 138.960 C 108.719 138.157,109.769 136.971,110.383 136.325 C 110.997 135.679,114.050 132.472,117.167 129.198 C 125.195 120.765,131.259 115.537,139.085 110.301 L 143.167 107.571 143.268 109.311 C 143.354 110.785,143.444 110.990,143.852 110.651 C 144.244 110.325,144.333 110.375,144.333 110.920 C 144.333 111.471,144.524 111.573,145.417 111.498 C 146.012 111.447,146.500 111.380,146.500 111.347 C 146.500 111.315,147.100 111.231,147.833 111.162 C 148.567 111.094,151.342 110.269,154.000 109.329 C 163.233 106.066,166.738 104.956,167.218 105.140 C 167.524 105.258,167.615 105.186,167.465 104.944 C 167.305 104.684,167.459 104.622,167.948 104.750 C 168.343 104.853,168.667 104.793,168.667 104.616 C 168.667 104.439,168.784 104.367,168.928 104.456 C 169.072 104.544,170.751 104.094,172.660 103.454 C 185.986 98.991,200.212 97.266,216.083 98.191 C 220.020 98.420,220.622 98.264,219.476 97.313 C 218.463 96.473,217.701 94.407,217.472 91.883 L 217.241 89.333 216.121 89.333 C 215.109 89.333,215.000 89.426,215.000 90.292 M260.333 96.460 C 260.333 97.380,258.960 97.778,256.004 97.715 L 253.167 97.654 257.000 99.425 C 260.837 101.198,266.433 104.119,268.713 105.540 C 269.381 105.955,270.018 106.204,270.130 106.092 C 270.242 105.980,270.334 106.026,270.335 106.194 C 270.337 106.449,273.736 106.582,275.272 106.389 C 276.730 106.205,275.437 104.468,272.447 102.596 C 267.431 99.454,260.333 95.859,260.333 96.460 M288.000 102.341 C 281.656 102.592,280.333 102.915,280.333 104.210 C 280.333 106.139,282.497 108.845,287.333 112.967 C 308.903 131.350,323.413 154.613,329.689 180.871 C 332.516 192.703,334.093 208.890,332.374 208.441 C 331.534 208.221,330.227 210.122,329.460 212.678 C 329.032 214.102,328.861 214.357,328.678 213.847 C 328.548 213.488,328.350 215.213,328.236 217.680 C 327.926 224.436,325.562 239.333,324.801 239.333 C 324.722 239.333,324.661 225.871,324.666 209.417 L 324.675 179.500 323.534 175.833 C 321.571 169.528,321.627 169.244,321.902 184.167 C 322.233 202.078,322.220 219.996,321.863 236.667 L 321.574 250.167 320.492 253.167 C 319.898 254.817,319.018 257.048,318.539 258.125 C 318.059 259.202,317.667 260.169,317.667 260.275 C 317.667 261.121,319.348 257.412,322.326 250.000 C 323.295 247.586,325.224 241.157,326.294 236.773 C 327.586 231.483,329.393 227.691,331.122 226.644 C 331.940 226.149,332.216 225.702,332.394 224.589 C 332.869 221.616,332.277 229.064,331.648 233.967 C 330.472 243.147,327.464 255.502,323.866 265.936 C 323.015 268.406,322.678 270.035,322.494 272.568 C 322.438 273.339,322.295 274.126,322.176 274.318 C 322.051 274.520,322.265 274.667,322.683 274.667 C 323.193 274.667,323.347 274.816,323.210 275.175 C 323.039 275.620,323.684 275.672,328.369 275.592 L 333.724 275.500 335.029 273.071 C 341.039 261.889,349.000 235.815,349.000 227.311 C 349.000 227.132,346.862 227.000,343.964 227.000 C 339.625 227.000,338.955 226.931,339.121 226.500 C 339.248 226.169,339.108 226.000,338.709 226.000 C 337.909 226.000,337.305 223.503,336.814 218.167 C 336.696 216.883,336.535 215.728,336.456 215.599 C 335.210 213.555,337.484 200.333,339.082 200.333 C 339.403 200.333,339.667 200.183,339.667 200.000 C 339.667 199.477,349.234 199.558,349.446 200.083 C 349.693 200.696,349.694 198.635,349.447 197.712 L 349.236 196.924 344.188 197.160 C 334.926 197.594,333.010 196.217,331.680 188.167 C 327.726 164.240,315.804 140.892,297.848 121.908 C 295.277 119.189,293.994 117.528,293.155 115.830 C 290.899 111.268,291.119 111.133,301.294 110.813 L 309.030 110.570 310.098 111.528 C 310.686 112.055,309.892 111.167,308.333 109.554 C 306.775 107.942,304.282 105.582,302.792 104.311 L 300.085 102.000 296.959 102.055 C 295.240 102.086,291.208 102.214,288.000 102.341 M150.333 113.588 L 147.833 115.167 207.667 115.333 C 240.575 115.425,267.688 115.621,267.917 115.770 C 268.146 115.918,268.333 115.961,268.333 115.864 C 268.333 115.768,267.246 115.086,265.917 114.349 L 263.500 113.009 207.686 113.004 C 158.539 113.001,151.950 112.942,152.520 112.511 C 153.807 111.537,152.781 112.043,150.333 113.588 M311.333 112.771 C 311.333 112.828,311.821 113.316,312.417 113.854 L 313.500 114.833 312.521 113.750 C 311.608 112.740,311.333 112.513,311.333 112.771 M291.833 123.333 C 292.736 124.250,293.550 125.000,293.642 125.000 C 293.733 125.000,293.070 124.250,292.167 123.333 C 291.264 122.417,290.450 121.667,290.358 121.667 C 290.267 121.667,290.930 122.417,291.833 123.333 M280.116 124.797 L 281.731 126.333 207.349 126.333 L 132.966 126.333 128.400 130.893 C 125.888 133.401,124.365 134.976,125.016 134.393 L 126.198 133.333 207.661 133.333 L 289.124 133.333 289.979 134.067 C 290.449 134.471,289.183 133.158,287.167 131.149 C 285.150 129.139,282.375 126.543,281.000 125.378 C 279.606 124.198,279.215 123.941,280.116 124.797 M299.275 131.438 C 299.878 132.079,300.000 132.606,300.000 134.554 C 300.000 139.141,298.662 139.987,294.811 137.833 C 293.664 137.192,292.632 136.667,292.519 136.667 C 292.405 136.667,293.423 138.054,294.781 139.750 C 296.139 141.446,298.281 144.341,299.541 146.183 C 300.802 148.026,301.934 149.526,302.056 149.517 C 302.179 149.508,302.629 149.819,303.056 150.208 C 306.358 153.219,308.006 152.077,308.260 146.601 L 308.409 143.369 306.160 140.101 C 303.699 136.527,299.106 130.667,298.765 130.667 C 298.647 130.667,298.877 131.014,299.275 131.438 M92.893 158.182 C 92.110 159.824,92.220 160.104,93.039 158.552 C 93.411 157.847,93.656 157.211,93.584 157.139 C 93.512 157.067,93.201 157.537,92.893 158.182 M91.721 160.848 C 91.162 162.073,91.269 162.335,91.873 161.221 C 92.155 160.700,92.323 160.212,92.247 160.136 C 92.171 160.060,91.934 160.380,91.721 160.848 M81.361 199.368 C 79.900 201.344,78.239 201.777,71.333 201.983 L 65.167 202.167 65.134 204.833 C 65.116 206.300,65.161 206.883,65.234 206.129 L 65.367 204.758 67.399 204.546 C 70.583 204.213,76.000 204.289,76.000 204.667 C 76.000 204.850,76.283 205.000,76.628 205.000 C 76.973 205.000,77.335 205.262,77.433 205.583 C 77.531 205.904,77.933 206.992,78.327 208.000 C 79.189 210.206,79.945 214.476,79.816 216.422 C 79.765 217.198,79.628 219.483,79.512 221.500 C 79.396 223.517,79.244 225.542,79.175 226.000 C 79.106 226.458,78.942 227.621,78.812 228.583 C 78.621 229.982,78.449 230.333,77.954 230.333 C 77.556 230.333,77.333 230.572,77.333 231.000 C 77.333 231.639,77.111 231.667,72.000 231.667 C 67.954 231.667,66.667 231.767,66.669 232.083 C 66.729 242.360,80.730 279.551,84.688 279.948 C 87.518 280.233,95.367 279.609,94.971 279.131 C 94.662 278.760,94.721 278.667,95.265 278.667 C 95.854 278.667,95.925 278.500,95.799 277.417 C 95.719 276.729,95.584 275.544,95.500 274.783 C 95.415 274.022,94.960 272.372,94.487 271.116 C 90.610 260.808,88.136 252.503,85.665 241.501 C 82.618 227.935,82.167 223.838,82.167 209.750 C 82.167 203.471,82.157 198.333,82.146 198.333 C 82.135 198.333,81.781 198.799,81.361 199.368 M328.077 200.333 C 328.077 200.975,328.146 201.237,328.230 200.917 C 328.314 200.596,328.314 200.071,328.230 199.750 C 328.146 199.429,328.077 199.692,328.077 200.333 M319.000 201.000 C 319.000 201.982,96.153 202.065,95.896 201.083 C 95.813 200.762,95.727 201.213,95.705 202.083 L 95.667 203.667 207.500 203.667 L 319.333 203.667 319.333 202.000 C 319.333 201.083,319.258 200.333,319.167 200.333 C 319.075 200.333,319.000 200.633,319.000 201.000 M349.783 205.667 C 349.783 207.225,349.841 207.862,349.911 207.083 C 349.981 206.304,349.981 205.029,349.911 204.250 C 349.841 203.471,349.783 204.108,349.783 205.667 M328.450 207.000 C 328.450 208.558,328.507 209.196,328.577 208.417 C 328.648 207.637,328.648 206.362,328.577 205.583 C 328.507 204.804,328.450 205.442,328.450 207.000 M95.453 210.000 C 95.453 211.742,95.510 212.454,95.578 211.583 C 95.647 210.713,95.647 209.287,95.578 208.417 C 95.510 207.546,95.453 208.258,95.453 210.000 M319.458 211.167 C 319.459 213.183,319.514 213.965,319.580 212.904 C 319.646 211.844,319.646 210.194,319.579 209.238 C 319.512 208.282,319.457 209.150,319.458 211.167 M349.781 214.500 C 349.782 215.967,349.841 216.525,349.911 215.741 C 349.982 214.957,349.981 213.757,349.909 213.075 C 349.837 212.392,349.780 213.033,349.781 214.500 M65.077 216.667 C 65.077 217.308,65.146 217.571,65.230 217.250 C 65.314 216.929,65.314 216.404,65.230 216.083 C 65.146 215.762,65.077 216.025,65.077 216.667 M332.896 221.250 C 332.813 221.571,332.744 221.308,332.744 220.667 C 332.744 220.025,332.813 219.762,332.896 220.083 C 332.980 220.404,332.980 220.929,332.896 221.250 M349.411 221.000 C 349.411 221.642,349.479 221.904,349.563 221.583 C 349.647 221.262,349.647 220.737,349.563 220.417 C 349.479 220.096,349.411 220.358,349.411 221.000 M65.411 221.333 C 65.411 221.975,65.479 222.237,65.563 221.917 C 65.647 221.596,65.647 221.071,65.563 220.750 C 65.479 220.429,65.411 220.692,65.411 221.333 M318.333 224.778 C 318.333 225.514,96.854 225.653,96.550 224.917 C 96.056 223.718,97.863 233.391,98.863 237.295 C 100.795 244.837,103.382 251.790,106.908 258.917 L 109.093 263.333 207.512 263.333 L 305.931 263.333 308.116 258.917 C 311.645 251.782,314.323 244.433,316.334 236.364 C 317.394 232.111,318.741 224.630,318.492 224.380 C 318.405 224.293,318.333 224.472,318.333 224.778 M313.170 268.894 C 312.497 270.118,311.171 272.331,310.223 273.810 L 308.500 276.500 308.315 273.833 C 307.838 266.949,304.264 267.789,297.745 276.319 C 289.914 286.564,281.601 294.749,272.333 301.336 C 269.806 303.133,268.713 304.015,269.667 303.488 C 269.942 303.337,271.265 302.452,272.608 301.523 C 273.950 300.594,275.381 299.608,275.787 299.333 C 279.039 297.133,285.294 291.662,290.667 286.319 C 294.319 282.687,298.748 280.800,299.237 282.667 C 299.333 283.033,299.544 283.333,299.706 283.333 C 299.867 283.333,300.000 284.409,300.000 285.724 L 300.000 288.115 298.256 290.141 C 297.297 291.255,296.768 291.965,297.080 291.718 C 298.017 290.975,303.735 284.032,305.907 281.000 C 309.223 276.370,315.081 266.667,314.561 266.667 C 314.469 266.667,313.844 267.669,313.170 268.894 M297.982 296.917 L 296.833 298.167 298.083 297.018 C 299.247 295.949,299.487 295.667,299.232 295.667 C 299.176 295.667,298.614 296.229,297.982 296.917 M294.146 300.750 L 293.167 301.833 294.250 300.854 C 294.846 300.316,295.333 299.828,295.333 299.771 C 295.333 299.513,295.058 299.740,294.146 300.750 M275.333 310.225 C 266.033 316.493,256.147 321.389,246.167 324.670 C 244.333 325.273,242.738 325.913,242.621 326.092 C 242.504 326.272,242.251 326.322,242.060 326.204 C 241.869 326.086,241.623 326.135,241.512 326.313 C 241.402 326.492,241.092 326.553,240.823 326.450 C 240.554 326.347,240.333 326.438,240.333 326.653 C 240.333 326.901,240.073 326.962,239.625 326.820 C 239.171 326.676,238.994 326.720,239.131 326.942 C 239.335 327.272,237.434 327.936,231.500 329.608 C 227.421 330.757,221.678 331.977,215.667 332.972 C 210.311 333.859,208.434 334.123,204.800 334.505 C 199.862 335.025,202.215 335.312,210.333 335.181 C 221.078 335.008,227.398 334.247,237.000 331.972 C 244.453 330.206,255.649 326.374,257.062 325.106 C 257.372 324.829,257.807 324.714,258.030 324.852 C 258.308 325.024,258.350 324.963,258.163 324.662 C 257.964 324.338,258.044 324.279,258.463 324.440 C 258.777 324.560,258.953 324.526,258.853 324.364 C 258.319 323.501,269.541 317.664,270.936 318.079 C 271.329 318.196,277.720 314.259,277.828 313.833 C 277.875 313.650,278.077 312.627,278.277 311.560 C 278.478 310.493,278.873 309.156,279.155 308.589 C 279.876 307.144,279.951 307.112,275.333 310.225 M256.667 310.667 C 254.558 311.748,252.948 312.640,253.089 312.649 C 253.443 312.673,260.667 309.033,260.667 308.831 C 260.667 308.603,260.902 308.495,256.667 310.667 M144.333 309.683 C 144.333 310.187,144.183 310.347,143.833 310.213 C 143.443 310.063,143.335 310.293,143.343 311.260 C 143.372 315.115,167.670 325.470,184.610 328.847 C 189.664 329.855,189.333 329.867,189.333 328.667 C 189.333 328.000,189.500 327.667,189.833 327.667 C 190.108 327.667,190.333 327.470,190.333 327.230 C 190.333 325.692,205.421 324.523,209.333 325.758 C 214.073 327.253,214.983 327.922,214.995 329.917 C 215.000 330.620,214.861 330.667,212.778 330.667 C 211.556 330.667,210.643 330.754,210.750 330.862 C 210.858 330.969,213.020 330.931,215.556 330.779 C 218.092 330.626,219.520 330.454,218.729 330.397 L 217.290 330.293 217.510 328.396 C 217.775 326.105,218.644 324.269,220.278 322.544 L 221.500 321.255 219.935 321.479 C 208.565 323.101,193.477 321.977,176.667 318.255 C 174.192 317.707,171.530 317.130,170.753 316.973 C 169.975 316.816,167.800 316.204,165.920 315.613 C 164.039 315.022,162.350 314.503,162.167 314.460 C 161.332 314.265,151.427 310.742,150.833 310.429 C 150.070 310.027,147.640 309.554,146.167 309.522 C 145.617 309.510,144.979 309.378,144.750 309.230 C 144.462 309.044,144.333 309.184,144.333 309.683 M250.833 313.357 C 250.100 313.710,249.875 313.905,250.333 313.791 C 251.277 313.556,253.010 312.687,252.500 312.705 C 252.317 312.711,251.567 313.005,250.833 313.357 M247.167 314.845 C 246.333 315.247,246.305 315.293,247.000 315.123 C 247.945 314.892,249.006 314.351,248.500 314.359 C 248.317 314.361,247.717 314.580,247.167 314.845 M196.417 330.563 C 196.737 330.647,197.262 330.647,197.583 330.563 C 197.904 330.479,197.642 330.411,197.000 330.411 C 196.358 330.411,196.096 330.479,196.417 330.563 M201.250 330.908 C 201.846 330.982,202.821 330.982,203.417 330.908 C 204.012 330.834,203.525 330.773,202.333 330.773 C 201.142 330.773,200.654 330.834,201.250 330.908 " stroke="none" fill="#8f8f90" fill-rule="evenodd"></path></g></svg>